<mxfile host="app.diagrams.net" modified="2024-07-04T19:06:07.680Z" agent="Mozilla/5.0 (Windows NT 10.0; Win64; x64) AppleWebKit/537.36 (KHTML, like Gecko) Chrome/126.0.0.0 Safari/537.36" etag="-nb4Lg6zYAFBJLRpijBM" version="24.6.2" type="device">
  <diagram name="Page-1" id="_a7QMOh3000f-OXLfL__">
    <mxGraphModel dx="803" dy="882" grid="1" gridSize="10" guides="1" tooltips="1" connect="1" arrows="1" fold="1" page="1" pageScale="1" pageWidth="827" pageHeight="1169" math="0" shadow="0">
      <root>
        <mxCell id="0" />
        <mxCell id="1" parent="0" />
        <mxCell id="NvZmcdHN2SkT0bai0p8w-1" value="Band" style="rounded=0;whiteSpace=wrap;html=1;" parent="1" vertex="1">
          <mxGeometry x="250" y="80" width="120" height="60" as="geometry" />
        </mxCell>
        <mxCell id="NvZmcdHN2SkT0bai0p8w-2" value="Album" style="rounded=0;whiteSpace=wrap;html=1;" parent="1" vertex="1">
          <mxGeometry x="370" y="230" width="120" height="60" as="geometry" />
        </mxCell>
        <mxCell id="NvZmcdHN2SkT0bai0p8w-3" value="Member" style="rounded=0;whiteSpace=wrap;html=1;" parent="1" vertex="1">
          <mxGeometry x="130" y="230" width="120" height="60" as="geometry" />
        </mxCell>
        <mxCell id="NvZmcdHN2SkT0bai0p8w-4" value="Song" style="rounded=0;whiteSpace=wrap;html=1;" parent="1" vertex="1">
          <mxGeometry x="370" y="380" width="120" height="60" as="geometry" />
        </mxCell>
        <mxCell id="NvZmcdHN2SkT0bai0p8w-5" value="" style="endArrow=none;html=1;rounded=0;entryX=1;entryY=1;entryDx=0;entryDy=0;exitX=0.5;exitY=0;exitDx=0;exitDy=0;" parent="1" source="NvZmcdHN2SkT0bai0p8w-2" target="NvZmcdHN2SkT0bai0p8w-1" edge="1">
          <mxGeometry width="50" height="50" relative="1" as="geometry">
            <mxPoint x="390" y="320" as="sourcePoint" />
            <mxPoint x="440" y="270" as="targetPoint" />
          </mxGeometry>
        </mxCell>
        <mxCell id="NvZmcdHN2SkT0bai0p8w-10" value="One to Many" style="edgeLabel;html=1;align=center;verticalAlign=middle;resizable=0;points=[];" parent="NvZmcdHN2SkT0bai0p8w-5" vertex="1" connectable="0">
          <mxGeometry x="0.0072" y="-1" relative="1" as="geometry">
            <mxPoint y="-1" as="offset" />
          </mxGeometry>
        </mxCell>
        <mxCell id="NvZmcdHN2SkT0bai0p8w-7" value="" style="endArrow=none;html=1;rounded=0;entryX=0.5;entryY=1;entryDx=0;entryDy=0;exitX=0.5;exitY=0;exitDx=0;exitDy=0;" parent="1" source="NvZmcdHN2SkT0bai0p8w-4" target="NvZmcdHN2SkT0bai0p8w-2" edge="1">
          <mxGeometry width="50" height="50" relative="1" as="geometry">
            <mxPoint x="390" y="320" as="sourcePoint" />
            <mxPoint x="440" y="270" as="targetPoint" />
          </mxGeometry>
        </mxCell>
        <mxCell id="NvZmcdHN2SkT0bai0p8w-11" value="One to Many" style="edgeLabel;html=1;align=center;verticalAlign=middle;resizable=0;points=[];" parent="NvZmcdHN2SkT0bai0p8w-7" vertex="1" connectable="0">
          <mxGeometry x="0.0444" y="2" relative="1" as="geometry">
            <mxPoint as="offset" />
          </mxGeometry>
        </mxCell>
        <mxCell id="NvZmcdHN2SkT0bai0p8w-8" value="" style="endArrow=none;html=1;rounded=0;entryX=0;entryY=1;entryDx=0;entryDy=0;exitX=0.5;exitY=0;exitDx=0;exitDy=0;" parent="1" source="NvZmcdHN2SkT0bai0p8w-3" target="NvZmcdHN2SkT0bai0p8w-1" edge="1">
          <mxGeometry width="50" height="50" relative="1" as="geometry">
            <mxPoint x="390" y="320" as="sourcePoint" />
            <mxPoint x="440" y="270" as="targetPoint" />
          </mxGeometry>
        </mxCell>
        <mxCell id="NvZmcdHN2SkT0bai0p8w-9" value="Many&amp;nbsp; to Many" style="edgeLabel;html=1;align=center;verticalAlign=middle;resizable=0;points=[];" parent="NvZmcdHN2SkT0bai0p8w-8" vertex="1" connectable="0">
          <mxGeometry x="-0.1662" y="-1" relative="1" as="geometry">
            <mxPoint as="offset" />
          </mxGeometry>
        </mxCell>
        <mxCell id="CbgVENIOFoylxk4f4LM4-1" value="Member" style="ellipse;whiteSpace=wrap;html=1;aspect=fixed;" vertex="1" parent="1">
          <mxGeometry x="170" y="530" width="80" height="80" as="geometry" />
        </mxCell>
        <mxCell id="CbgVENIOFoylxk4f4LM4-2" value="Band" style="ellipse;whiteSpace=wrap;html=1;aspect=fixed;" vertex="1" parent="1">
          <mxGeometry x="344" y="530" width="80" height="80" as="geometry" />
        </mxCell>
        <mxCell id="CbgVENIOFoylxk4f4LM4-3" value="Album" style="ellipse;whiteSpace=wrap;html=1;aspect=fixed;" vertex="1" parent="1">
          <mxGeometry x="344" y="660" width="80" height="80" as="geometry" />
        </mxCell>
        <mxCell id="CbgVENIOFoylxk4f4LM4-4" value="Song" style="ellipse;whiteSpace=wrap;html=1;aspect=fixed;" vertex="1" parent="1">
          <mxGeometry x="344" y="830" width="80" height="80" as="geometry" />
        </mxCell>
        <mxCell id="CbgVENIOFoylxk4f4LM4-5" value="" style="endArrow=classic;html=1;rounded=0;exitX=0.5;exitY=1;exitDx=0;exitDy=0;entryX=0.5;entryY=0;entryDx=0;entryDy=0;" edge="1" parent="1" source="CbgVENIOFoylxk4f4LM4-2" target="CbgVENIOFoylxk4f4LM4-3">
          <mxGeometry width="50" height="50" relative="1" as="geometry">
            <mxPoint x="290" y="670" as="sourcePoint" />
            <mxPoint x="420" y="620" as="targetPoint" />
          </mxGeometry>
        </mxCell>
        <mxCell id="CbgVENIOFoylxk4f4LM4-6" value="Text" style="edgeLabel;html=1;align=center;verticalAlign=middle;resizable=0;points=[];" vertex="1" connectable="0" parent="CbgVENIOFoylxk4f4LM4-5">
          <mxGeometry x="-0.1667" y="1" relative="1" as="geometry">
            <mxPoint as="offset" />
          </mxGeometry>
        </mxCell>
        <mxCell id="CbgVENIOFoylxk4f4LM4-7" value="Text" style="edgeLabel;html=1;align=center;verticalAlign=middle;resizable=0;points=[];" vertex="1" connectable="0" parent="CbgVENIOFoylxk4f4LM4-5">
          <mxGeometry x="-0.1667" y="2" relative="1" as="geometry">
            <mxPoint as="offset" />
          </mxGeometry>
        </mxCell>
        <mxCell id="CbgVENIOFoylxk4f4LM4-9" value="has albums" style="edgeLabel;html=1;align=center;verticalAlign=middle;resizable=0;points=[];" vertex="1" connectable="0" parent="CbgVENIOFoylxk4f4LM4-5">
          <mxGeometry x="-0.3" relative="1" as="geometry">
            <mxPoint as="offset" />
          </mxGeometry>
        </mxCell>
        <mxCell id="CbgVENIOFoylxk4f4LM4-10" value="" style="endArrow=classic;html=1;rounded=0;exitX=0.5;exitY=1;exitDx=0;exitDy=0;" edge="1" parent="1" source="CbgVENIOFoylxk4f4LM4-3" target="CbgVENIOFoylxk4f4LM4-4">
          <mxGeometry width="50" height="50" relative="1" as="geometry">
            <mxPoint x="350" y="700" as="sourcePoint" />
            <mxPoint x="400" y="650" as="targetPoint" />
          </mxGeometry>
        </mxCell>
        <mxCell id="CbgVENIOFoylxk4f4LM4-11" value="Text" style="edgeLabel;html=1;align=center;verticalAlign=middle;resizable=0;points=[];" vertex="1" connectable="0" parent="CbgVENIOFoylxk4f4LM4-10">
          <mxGeometry x="-0.1481" relative="1" as="geometry">
            <mxPoint as="offset" />
          </mxGeometry>
        </mxCell>
        <mxCell id="CbgVENIOFoylxk4f4LM4-12" value="has songs" style="edgeLabel;html=1;align=center;verticalAlign=middle;resizable=0;points=[];" vertex="1" connectable="0" parent="CbgVENIOFoylxk4f4LM4-10">
          <mxGeometry x="-0.1481" relative="1" as="geometry">
            <mxPoint as="offset" />
          </mxGeometry>
        </mxCell>
        <mxCell id="CbgVENIOFoylxk4f4LM4-13" value="" style="endArrow=classic;html=1;rounded=0;exitX=0.996;exitY=0.683;exitDx=0;exitDy=0;exitPerimeter=0;entryX=0.029;entryY=0.7;entryDx=0;entryDy=0;entryPerimeter=0;" edge="1" parent="1" source="CbgVENIOFoylxk4f4LM4-1" target="CbgVENIOFoylxk4f4LM4-2">
          <mxGeometry width="50" height="50" relative="1" as="geometry">
            <mxPoint x="350" y="720" as="sourcePoint" />
            <mxPoint x="400" y="670" as="targetPoint" />
          </mxGeometry>
        </mxCell>
        <mxCell id="CbgVENIOFoylxk4f4LM4-14" value="Text" style="edgeLabel;html=1;align=center;verticalAlign=middle;resizable=0;points=[];" vertex="1" connectable="0" parent="CbgVENIOFoylxk4f4LM4-13">
          <mxGeometry x="-0.0798" y="2" relative="1" as="geometry">
            <mxPoint as="offset" />
          </mxGeometry>
        </mxCell>
        <mxCell id="CbgVENIOFoylxk4f4LM4-15" value="is in a band" style="edgeLabel;html=1;align=center;verticalAlign=middle;resizable=0;points=[];" vertex="1" connectable="0" parent="CbgVENIOFoylxk4f4LM4-13">
          <mxGeometry x="-0.0968" y="1" relative="1" as="geometry">
            <mxPoint as="offset" />
          </mxGeometry>
        </mxCell>
        <mxCell id="CbgVENIOFoylxk4f4LM4-16" value="" style="endArrow=classic;html=1;rounded=0;entryX=1.013;entryY=0.325;entryDx=0;entryDy=0;entryPerimeter=0;exitX=0.029;exitY=0.325;exitDx=0;exitDy=0;exitPerimeter=0;" edge="1" parent="1" source="CbgVENIOFoylxk4f4LM4-2" target="CbgVENIOFoylxk4f4LM4-1">
          <mxGeometry width="50" height="50" relative="1" as="geometry">
            <mxPoint x="350" y="720" as="sourcePoint" />
            <mxPoint x="400" y="670" as="targetPoint" />
          </mxGeometry>
        </mxCell>
        <mxCell id="CbgVENIOFoylxk4f4LM4-17" value="has members" style="edgeLabel;html=1;align=center;verticalAlign=middle;resizable=0;points=[];" vertex="1" connectable="0" parent="CbgVENIOFoylxk4f4LM4-16">
          <mxGeometry x="0.0772" y="-1" relative="1" as="geometry">
            <mxPoint as="offset" />
          </mxGeometry>
        </mxCell>
        <mxCell id="CbgVENIOFoylxk4f4LM4-18" value="id: int&lt;div&gt;name: string&lt;/div&gt;&lt;div&gt;genre: string&lt;/div&gt;&lt;div&gt;albums: array&amp;lt;Album&amp;gt;&lt;/div&gt;" style="text;html=1;align=left;verticalAlign=middle;whiteSpace=wrap;rounded=0;" vertex="1" parent="1">
          <mxGeometry x="430" y="550" width="190" height="30" as="geometry" />
        </mxCell>
        <mxCell id="CbgVENIOFoylxk4f4LM4-19" value="id: int&lt;div&gt;name: string&lt;/div&gt;&lt;div&gt;instrument: string&lt;/div&gt;&lt;div&gt;bands: array&amp;lt;BandId&amp;gt;&lt;/div&gt;" style="text;html=1;align=left;verticalAlign=middle;whiteSpace=wrap;rounded=0;" vertex="1" parent="1">
          <mxGeometry x="60" y="580" width="190" height="30" as="geometry" />
        </mxCell>
        <mxCell id="CbgVENIOFoylxk4f4LM4-20" value="id: int&lt;div&gt;name: string&lt;/div&gt;&lt;div&gt;genre: string&lt;/div&gt;&lt;div&gt;release_date: Date&lt;/div&gt;&lt;div&gt;songs: array&amp;lt;Song&amp;gt;&lt;/div&gt;" style="text;html=1;align=left;verticalAlign=middle;whiteSpace=wrap;rounded=0;" vertex="1" parent="1">
          <mxGeometry x="440" y="685" width="190" height="30" as="geometry" />
        </mxCell>
        <mxCell id="CbgVENIOFoylxk4f4LM4-22" value="id: int&lt;div&gt;title: string&lt;/div&gt;&lt;div&gt;duration: float&lt;br&gt;&lt;/div&gt;" style="text;html=1;align=left;verticalAlign=middle;whiteSpace=wrap;rounded=0;" vertex="1" parent="1">
          <mxGeometry x="430" y="860" width="190" height="30" as="geometry" />
        </mxCell>
      </root>
    </mxGraphModel>
  </diagram>
</mxfile>
